<?xml version="1.0" encoding="UTF-8" standalone="no"?>
<!-- Created with Inkscape (http://www.inkscape.org/) -->

<svg
   xmlns:osb="http://www.openswatchbook.org/uri/2009/osb"
   xmlns:dc="http://purl.org/dc/elements/1.1/"
   xmlns:cc="http://creativecommons.org/ns#"
   xmlns:rdf="http://www.w3.org/1999/02/22-rdf-syntax-ns#"
   xmlns:svg="http://www.w3.org/2000/svg"
   xmlns="http://www.w3.org/2000/svg"
   xmlns:xlink="http://www.w3.org/1999/xlink"
   xmlns:sodipodi="http://sodipodi.sourceforge.net/DTD/sodipodi-0.dtd"
   xmlns:inkscape="http://www.inkscape.org/namespaces/inkscape"
   width="744.09448819"
   height="1052.3622047"
   id="svg2"
   version="1.1"
   inkscape:version="0.48.2 r9819"
   sodipodi:docname="New document 1">
  <defs
     id="defs4">
    <linearGradient
       inkscape:collect="always"
       id="linearGradient5244">
      <stop
         style="stop-color:#ffccaa;stop-opacity:1;"
         offset="0"
         id="stop5246" />
      <stop
         style="stop-color:#ffccaa;stop-opacity:0;"
         offset="1"
         id="stop5248" />
    </linearGradient>
    <linearGradient
       id="linearGradient5220"
       osb:paint="solid">
      <stop
         style="stop-color:#00ff00;stop-opacity:1;"
         offset="0"
         id="stop5222" />
    </linearGradient>
    <radialGradient
       inkscape:collect="always"
       xlink:href="#linearGradient5244"
       id="radialGradient5250"
       cx="84.849976"
       cy="212.3146"
       fx="84.849976"
       fy="212.3146"
       r="81.014244"
       gradientTransform="matrix(1,0,0,2.6238435,0,-344.76567)"
       gradientUnits="userSpaceOnUse" />
  </defs>
  <sodipodi:namedview
     id="base"
     pagecolor="#ffffff"
     bordercolor="#666666"
     borderopacity="1.0"
     inkscape:pageopacity="0.0"
     inkscape:pageshadow="2"
     inkscape:zoom="0.98994949"
     inkscape:cx="-129.81289"
     inkscape:cy="811.93219"
     inkscape:document-units="px"
     inkscape:current-layer="layer1"
     showgrid="false"
     inkscape:window-width="1280"
     inkscape:window-height="876"
     inkscape:window-x="-8"
     inkscape:window-y="-8"
     inkscape:window-maximized="1" />
  <metadata
     id="metadata7">
    <rdf:RDF>
      <cc:Work
         rdf:about="">
        <dc:format>image/svg+xml</dc:format>
        <dc:type
           rdf:resource="http://purl.org/dc/dcmitype/StillImage" />
        <dc:title></dc:title>
      </cc:Work>
    </rdf:RDF>
  </metadata>
  <g
     inkscape:label="Layer 1"
     inkscape:groupmode="layer"
     id="layer1">
    <path
       style="fill:url(#radialGradient5250);stroke:#000000;stroke-width:6.46499999999999990;stroke-linecap:butt;stroke-linejoin:round;stroke-opacity:1;stroke-miterlimit:4;stroke-dasharray:none;fill-opacity:1"
       d="M 90.910883,124.8351 126.26623,291.50517 82.829673,351.58363 7.0682328,292.51022 83.839823,421.65079 162.63172,293.23576 103.03271,120.77656 128.28653,145.48683 79.799213,2.9784017 72.728143,167.41537 z"
       id="path2985"
       inkscape:connector-curvature="0"
       sodipodi:nodetypes="ccccccccccc"
       inkscape:export-filename="C:\Skydrive\pics\Jekt.png"
       inkscape:export-xdpi="90"
       inkscape:export-ydpi="90" />
    <path
       style="fill:#ffffff;fill-opacity:0"
       d="m 202.36635,832.20111 c -19.31432,-32.57004 -34.91361,-59.42159 -34.66509,-59.67011 0.24853,-0.24853 15.98751,11.68057 34.97551,26.50911 18.98801,14.82853 34.86737,26.57912 35.28747,26.11242 0.4201,-0.46669 10.43838,-14.24917 22.26285,-30.62771 l 21.49904,-29.77918 -17.39323,-82.34776 c -9.56627,-45.29127 -17.75556,-83.48417 -18.19842,-84.87313 -0.91547,-2.87124 -0.80217,-3.08852 -11.23966,21.55497 l -5.49275,12.96866 -0.27089,-6.40267 c -0.28723,-6.78904 5.40608,-141.17412 6.00636,-141.7744 0.19391,-0.19391 10.20663,28.58324 22.25048,63.94921 12.04386,35.36597 21.72172,64.47797 21.50634,64.69334 -0.21536,0.21536 -5.145,-4.23316 -10.95474,-9.8856 -5.80974,-5.65245 -10.80547,-9.88513 -11.10161,-9.40595 -0.39131,0.63315 53.92053,159.76231 58.36098,170.9928 0.56812,1.43686 -75.21477,126.45344 -76.97406,126.98161 -0.4079,0.12245 -16.54426,-26.42557 -35.85858,-58.99561 z"
       id="path2998"
       inkscape:connector-curvature="0" />
    <path
       style="fill:#ffccaa;fill-opacity:0"
       d="m 202.36635,832.20111 c -19.31432,-32.57004 -34.91361,-59.42159 -34.66509,-59.67011 0.24853,-0.24853 15.98751,11.68057 34.97551,26.50911 18.98801,14.82853 34.86737,26.57912 35.28747,26.11242 0.4201,-0.46669 10.43838,-14.24917 22.26285,-30.62771 l 21.49904,-29.77918 -17.39323,-82.34776 c -9.56627,-45.29127 -17.75556,-83.48417 -18.19842,-84.87313 -0.91547,-2.87124 -0.80217,-3.08852 -11.23966,21.55497 l -5.49275,12.96866 -0.27089,-6.40267 c -0.28723,-6.78904 5.40608,-141.17412 6.00636,-141.7744 0.19391,-0.19391 10.20663,28.58324 22.25048,63.94921 12.04386,35.36597 21.72172,64.47797 21.50634,64.69334 -0.21536,0.21536 -5.145,-4.23316 -10.95474,-9.8856 -5.80974,-5.65245 -10.80547,-9.88513 -11.10161,-9.40595 -0.39131,0.63315 53.92053,159.76231 58.36098,170.9928 0.56812,1.43686 -75.21477,126.45344 -76.97406,126.98161 -0.4079,0.12245 -16.54426,-26.42557 -35.85858,-58.99561 z"
       id="path3000"
       inkscape:connector-curvature="0" />
    <path
       style="fill:#ffe6d5;fill-opacity:0"
       d="m 202.36635,832.20111 c -19.31432,-32.57004 -34.91361,-59.42159 -34.66509,-59.67011 0.24853,-0.24853 15.98751,11.68057 34.97551,26.50911 18.98801,14.82853 34.86737,26.57912 35.28747,26.11242 0.4201,-0.46669 10.43838,-14.24917 22.26285,-30.62771 l 21.49904,-29.77918 -17.39323,-82.34776 c -9.56627,-45.29127 -17.75556,-83.48417 -18.19842,-84.87313 -0.91547,-2.87124 -0.80217,-3.08852 -11.23966,21.55497 l -5.49275,12.96866 -0.27089,-6.40267 c -0.28723,-6.78904 5.40608,-141.17412 6.00636,-141.7744 0.19391,-0.19391 10.20663,28.58324 22.25048,63.94921 12.04386,35.36597 21.72172,64.47797 21.50634,64.69334 -0.21536,0.21536 -5.145,-4.23316 -10.95474,-9.8856 -5.80974,-5.65245 -10.80547,-9.88513 -11.10161,-9.40595 -0.39131,0.63315 53.92053,159.76231 58.36098,170.9928 0.56812,1.43686 -75.21477,126.45344 -76.97406,126.98161 -0.4079,0.12245 -16.54426,-26.42557 -35.85858,-58.99561 z"
       id="path3002"
       inkscape:connector-curvature="0" />
    <path
       style="fill:#00ff00;fill-opacity:0"
       d="m 202.40462,832.18529 c -19.62662,-33.0479 -35.53652,-60.22997 -35.35534,-60.40457 0.18118,-0.17461 16.01204,11.93267 35.17969,26.90506 l 34.85026,27.22251 1.88424,-2.31737 c 1.03634,-1.27456 11.03685,-14.98373 22.22336,-30.4648 14.24502,-19.71378 20.23646,-28.79376 19.99652,-30.30458 -0.99929,-6.29199 -34.64433,-164.08054 -35.33632,-165.72028 -0.63225,-1.4982 -2.62691,2.33996 -8.77825,16.89121 -4.37805,10.35646 -8.12857,18.66146 -8.33448,18.45554 -0.34147,-0.34146 5.55974,-144.07135 6.09397,-148.4247 0.12686,-1.03376 10.16204,27.29438 22.30041,62.95142 12.13836,35.65706 21.88841,65.01234 21.66677,65.23398 -0.22164,0.22164 -4.91696,-4.12801 -10.43405,-9.66588 -5.51708,-5.53787 -10.38052,-10.06885 -10.80763,-10.06885 -0.42711,0 -0.77657,0.66423 -0.77657,1.47606 0,0.81183 13.21509,39.71924 29.36687,86.46091 16.15178,46.74166 29.16148,85.51127 28.91045,86.15467 -0.36644,0.93923 -76.29787,125.05245 -76.8182,125.56268 -0.0808,0.0793 -16.20508,-26.89511 -35.8317,-59.94301 l 0,0 z"
       id="path3772"
       inkscape:connector-curvature="0" />
  </g>
</svg>
