<?xml version="1.0" encoding="UTF-8" standalone="no"?>
<!-- Created with Inkscape (http://www.inkscape.org/) -->

<svg
   xmlns:dc="http://purl.org/dc/elements/1.1/"
   xmlns:cc="http://creativecommons.org/ns#"
   xmlns:rdf="http://www.w3.org/1999/02/22-rdf-syntax-ns#"
   xmlns:svg="http://www.w3.org/2000/svg"
   xmlns="http://www.w3.org/2000/svg"
   xmlns:sodipodi="http://sodipodi.sourceforge.net/DTD/sodipodi-0.dtd"
   xmlns:inkscape="http://www.inkscape.org/namespaces/inkscape"
   width="744.09448819"
   height="1052.3622047"
   id="svg2"
   version="1.1"
   inkscape:version="0.48.4 r9939"
   sodipodi:docname="Logo, CazCore.svg">
  <defs
     id="defs4" />
  <sodipodi:namedview
     id="base"
     pagecolor="#ffffff"
     bordercolor="#666666"
     borderopacity="1.0"
     inkscape:pageopacity="0.0"
     inkscape:pageshadow="2"
     inkscape:zoom="0.7"
     inkscape:cx="124.44368"
     inkscape:cy="378.93622"
     inkscape:document-units="px"
     inkscape:current-layer="layer1"
     showgrid="false"
     inkscape:window-width="1826"
     inkscape:window-height="1058"
     inkscape:window-x="86"
     inkscape:window-y="-8"
     inkscape:window-maximized="1" />
  <metadata
     id="metadata7">
    <rdf:RDF>
      <cc:Work
         rdf:about="">
        <dc:format>image/svg+xml</dc:format>
        <dc:type
           rdf:resource="http://purl.org/dc/dcmitype/StillImage" />
        <dc:title />
      </cc:Work>
    </rdf:RDF>
  </metadata>
  <g
     inkscape:label="Layer 1"
     inkscape:groupmode="layer"
     id="layer1">
    <path
       style="fill:none;stroke:#000000;stroke-width:1px;stroke-linecap:butt;stroke-linejoin:miter;stroke-opacity:1"
       d="M 359.34375 364 C 347.3597 379.83822 336.10081 396.70735 330.15562 415.83264 C 317.82268 443.34071 303.85474 470.07081 290.55893 497.11255 C 270.0312 541.41782 258.96916 589.32499 249.72045 637.05068 C 234.32805 717.9664 228.15629 800.79762 233.4067 883.05118 C 234.69974 895.81278 239.06817 909.65446 250.24762 917.12654 C 266.5226 928.45048 286.34395 933.9587 301.37988 947.18949 C 326.49615 965.71767 347.0998 989.37075 369.9375 1010.4688 C 376.78072 1012.5426 382.98631 1006.7436 385.77759 1001.0197 C 396.96754 982.11178 414.18464 967.60511 432.34375 955.65625 C 444.6787 947.5638 458.04067 941.19406 470.91131 934.0759 C 480.79998 926.28701 483.4288 912.99068 484.03767 901.08286 C 486.02873 869.74904 484.29611 838.34524 483.13206 807.01525 C 482.26055 789.98634 480.61442 772.7736 475.125 756.53125 C 472.09152 753.58822 467.48973 758.15027 468.79823 761.58376 C 468.01144 781.63976 464.01824 801.46948 458.47805 820.71735 C 452.73932 839.56745 442.90515 857.52587 428.10456 870.77708 C 412.99178 884.94814 395.28533 896.59546 375.8586 903.89687 C 367.07758 906.61267 358.35363 901.34909 352.13862 895.53766 C 344.60311 887.94353 336.36773 881.1178 328.40288 873.99094 C 319.30721 865.84566 311.52286 855.56489 309.13386 843.3509 C 305.65715 827.35831 307.9449 810.91722 307.62068 794.71974 C 308.7472 720.49003 317.71639 645.9766 339.08179 574.72605 C 343.32764 561.11421 347.60161 547.429 353.59375 534.46875 C 356.47195 528.35783 361.82491 522.80258 368.91448 522.30811 C 374.753 521.55176 380.33779 524.77609 383.55405 529.51923 C 392.3484 539.91877 396.90566 553.02555 404.48647 564.22929 C 423.11855 597.56166 440.40751 631.62744 459.25 664.84375 C 464.3869 665.12999 467.3312 657.65583 463.625 654.21875 C 458.39764 604.02243 453.15659 553.08947 435.51343 505.43721 C 422.24511 472.51138 410.33253 439.00995 395.50659 406.73245 C 388.96542 392.77145 382.00003 378.8965 373.33805 366.1298 C 370.53814 362.96243 367.23325 360.18264 363.40625 358.34375 C 362.05208 360.22917 360.69792 362.11458 359.34375 364 z "
       id="path3793"
       inkscape:connector-curvature="0" />
    <path
       style="fill:none;stroke:#000000;stroke-width:1px;stroke-linecap:butt;stroke-linejoin:miter;stroke-opacity:1"
       d="M 634.71875 483.21875 C 628.81693 487.54627 627.17955 495.13491 622.88714 500.74093 C 605.9335 526.85637 589.93607 553.66338 576.51422 581.78407 C 560.64088 613.05474 548.16427 645.9642 538.06258 679.52016 C 529.57735 707.64562 523.35563 736.44871 519.54998 765.58017 C 516.9031 785.36498 515.46198 805.28554 514.47523 825.21509 C 513.00675 850.81745 510.88265 876.42213 511.06763 902.08255 C 511.67443 908.79823 515.69147 915.85663 522.53125 917.75 C 530.46591 920.20829 538.91882 918.67912 546.99819 920.28273 C 559.35906 922.16574 570.97227 927.04749 582.57002 931.50498 C 598.4639 937.97103 613.59075 946.71683 626.15854 958.48966 C 631.14193 962.7131 636.18194 967.48545 642.68253 969.13514 C 648.94331 969.31555 654.0404 964.58545 657.23531 959.63548 C 667.0773 946.72529 676.51116 933.07714 689.69122 923.28384 C 702.66672 913.15342 717.86137 906.36565 733.26486 900.83391 C 741.29928 897.52141 749.78149 894.18735 755.84159 887.71679 C 759.43791 881.32578 757.83426 873.76316 757.24975 866.8545 C 751.98716 805.2128 745.58074 743.39738 730.99012 683.15592 C 719.85599 638.19833 703.46921 594.65924 683.9365 552.70802 C 677.5529 539.41845 669.36679 527.12143 661.11201 514.94426 C 655.02283 505.83794 649.38006 496.39325 642.59375 487.78125 C 640.63126 485.59075 638.15227 483.05144 635.10065 482.94917 C 634.97335 483.03903 634.84605 483.12889 634.71875 483.21875 z "
       id="path3795"
       inkscape:connector-curvature="0"
       inkscape:transform-center-x="22.555864" />
    <path
       style="fill:none;stroke:#000000;stroke-width:1px;stroke-linecap:butt;stroke-linejoin:miter;stroke-opacity:1"
       d="m 860.61752,558.4747 c -3.03952,-1.34075 -4.49707,3.13763 -3.66905,5.42677 0.84559,12.27968 -6.88047,22.64903 -11.32783,33.50548 -11.51275,24.42006 -22.78379,49.19728 -29.0344,75.5764 -8.75372,32.96025 -15.00663,66.5663 -18.8078,100.45523 -2.94274,23.23041 -6.82706,46.39443 -8.30539,69.77256 0.11614,9.21751 6.23179,18.33853 15.3215,20.79011 9.46895,4.39971 19.3448,9.38889 25.35455,18.28677 6.12159,6.50213 12.98795,12.92647 21.72731,15.57971 6.24602,-1.89792 7.03578,-10.32654 3.77853,-15.13379 -8.70811,-23.22343 -14.08725,-47.70407 -15.45515,-72.48443 -1.27376,-23.13236 -1.77219,-46.5482 2.19881,-69.4598 0.33573,-3.7675 2.22234,-7.45155 5.86411,-8.9743 4.02606,-2.18068 9.28429,-0.89587 11.72016,3.01375 7.91679,9.43914 10.87763,21.77639 17.44309,32.04606 11.96266,24.16826 21.80018,50.60516 20.38397,77.99679 -1.17354,18.97366 -11.41566,35.96206 -23.32482,50.22538 -0.635,3.32246 4.44494,3.72537 6.22079,1.78902 3.49785,-2.73186 5.60535,-6.99723 9.76903,-8.92215 13.61311,-9.06851 30.06873,-12.07253 44.67326,-18.96017 5.66626,-5.33002 4.54457,-14.14068 1.84056,-20.66035 -8.63833,-32.42997 -20.47047,-63.91998 -33.98351,-94.61163 -0.87147,-2.08348 -2.32229,-4.59475 -0.1578,-6.43625 3.50777,-3.58254 10.11158,-2.11332 12.29643,2.23456 5.22782,5.77189 15.91269,6.86452 20.96545,0.30377 5.07839,-15.62928 0.80839,-32.05978 -1.42348,-47.78672 -6.44253,-33.62872 -19.43498,-65.96326 -37.61645,-94.94625 -8.51426,-12.00197 -19.32725,-22.73647 -24.46757,-36.8104 -2.63287,-4.98049 -7.35645,-8.76415 -11.9843,-11.81612 z"
       id="path3797"
       inkscape:connector-curvature="0" />
    <path
       style="fill:none;stroke:#000000;stroke-width:0.96457916px;stroke-linecap:butt;stroke-linejoin:miter;stroke-opacity:1"
       d="m 1062.1488,611.94945 c -4.2336,-2.97046 -9.4844,1.13175 -11.0102,5.2292 -7.53,12.84559 -12.09,27.12866 -18.8108,40.37929 -13.7884,30.08247 -27.7536,60.65453 -33.20794,93.54886 -4.70932,22.8027 -9.66059,45.61742 -12.42121,68.75175 -0.26396,9.82407 4.70854,19.84816 13.46745,24.64345 10.2643,7.01111 21.8733,12.79536 29.3226,23.11882 6.4398,7.47427 10.7077,17.17644 19.2111,22.64294 6.1114,3.00479 13.7482,1.21794 18.3639,-3.63789 8.0797,-6.4468 15.7897,-14.34243 26.2648,-16.60302 12.5562,-4.66094 26.4883,-7.8239 36.2519,-17.63568 5.6047,-8.85966 2.8702,-19.70833 1.925,-29.42214 -0.8615,-9.38917 -1.5258,-18.94572 -4.7079,-27.90061 -5.5144,3.43573 -3.6895,10.77435 -5.7603,16.02831 -7.2265,24.08136 -32.5355,41.64115 -57.6793,39.1288 -12.2326,-1.43791 -23.357,-9.06952 -29.2588,-19.8606 -8.4814,-14.3864 -8.388,-34.54827 3.304,-47.1945 8.9784,-9.66898 24.0729,-12.99743 36.216,-7.74457 3.5314,0.91154 7.0375,1.97416 10.6688,2.42182 -0.3254,-4.27115 -5.515,-4.75898 -8.3389,-6.85141 -11.9195,-5.64403 -26.174,-7.80072 -35.3842,-18.03359 -6.5653,-8.56545 -4.9858,-20.38282 -1.4622,-29.85575 4.5615,-12.75705 18.4418,-21.88218 32.0383,-19.53694 20.5793,1.86056 38.7147,15.61235 49.1578,32.99063 1.2012,1.55246 1.8073,4.02723 3.1179,5.15566 5.0221,-0.92741 5.6511,-7.9934 2.4891,-11.19211 -8.6505,-28.47617 -20.6322,-56.58649 -40.0435,-79.48222 -8.026,-10.70372 -14.0567,-22.71268 -19.9457,-34.6539 -1.1549,-1.55603 -2.3616,-3.09659 -3.7677,-4.4346 z"
       id="path3799"
       inkscape:connector-curvature="0" />
    <path
       style="fill:none;stroke:#000000;stroke-width:1px;stroke-linecap:butt;stroke-linejoin:miter;stroke-opacity:1"
       d="m 95.495234,478.33532 c -14.69818,13.50608 -23.31677,32.00647 -30.4222,50.31316 -7.10044,16.75417 -14.250216,33.6697 -24.61912,48.71397 -13.098998,26.00718 -16.383126,55.3708 -20.18703,83.84561 -0.4563,4.30679 -0.845881,8.62031 -1.27187,12.93016 7.090358,-0.24945 11.109114,-7.26679 13.297754,-13.17649 10.441729,-19.57495 22.222116,-39.5684 40.814056,-52.48213 16.87676,-8.26538 40.056886,4.7785 41.145476,23.68895 0.40467,16.79267 -8.85223,31.77101 -18.587926,44.72228 -24.90719,33.58921 -58.521933,60.21142 -79.827233,96.55295 -16.45651771,28.44898 -29.806255,59.32627 -34.239801,92.11257 1.732803,7.95344 10.4424783,11.67711 17.85077329,11.95799 28.16663371,7.11328 53.68053171,27.23287 64.18299071,54.71731 2.55451,8.44309 5.30582,18.19466 13.6058,22.75677 8.593,2.21574 16.3276,-3.58015 22.840426,-8.38505 20.31948,-13.37704 39.42856,-29.95527 63.3675,-36.49259 12.9037,-3.40154 26.83278,-2.94026 39.0392,-8.84607 6.06563,-7.38465 4.42849,-17.75822 1.80377,-26.18575 -7.52482,-38.64894 -14.02885,-77.50553 -22.66665,-115.93094 -5.53063,0.11716 -7.9589,6.64793 -7.11258,11.3744 -5.75052,23.46396 -9.48892,48.10196 -22.16631,69.11631 -12.08213,13.2382 -29.37599,19.44366 -45.06258,27.17142 -12.630986,3.63622 -25.994256,-2.73208 -34.509066,-11.98907 -7.93874,-5.89913 -17.13728,-12.0929 -19.812893,-22.22158 -0.674875,-11.73915 7.531503,-21.15128 11.781983,-31.44049 16.31014,-33.77929 37.960066,-65.79272 67.642526,-89.22166 10.61369,-8.71258 22.66795,-15.83745 32.02942,-25.96873 5.50708,-8.94924 3.06953,-19.93729 0.88182,-29.51952 -5.42834,-25.85781 -10.3535,-51.83586 -16.5867,-77.51474 -4.22341,-16.48474 -11.13241,-32.0781 -18.07951,-47.55249 -4.47015,-10.2857 -8.34207,-20.88767 -13.46788,-30.85446 -5.59291,-8.26175 -14.11706,-13.80144 -20.777686,-21.09284 -0.0634,-0.40741 -0.26345,-1.47762 -0.88646,-1.09925 z"
       id="path3820"
       inkscape:connector-curvature="0" />
    <path
       style="fill:none;stroke:#000000;stroke-width:1px;stroke-linecap:butt;stroke-linejoin:miter;stroke-opacity:1"
       d="M 641.4375 592.34375 C 635.05119 597.96121 629.75199 604.73033 625.03873 611.78345 C 616.32679 624.92169 609.83544 639.37007 603.77953 653.87752 C 592.58447 682.08029 585.95213 711.81783 580.25253 741.54078 C 577.94264 754.90903 576.82366 768.44055 575.62283 781.93967 C 573.19244 800.8485 569.2056 819.88219 571.36737 839.02426 C 572.04168 845.09641 572.94223 851.40262 576 856.78125 C 580.97988 863.66223 589.39472 866.4086 596.81492 869.76188 C 605.0254 873.43982 612.75054 878.14331 619.82873 883.69114 C 625.93963 887.95814 632.42682 892.39694 639.92968 893.56006 C 645.443 892.59521 648.29418 887.23673 652.02132 883.66618 C 662.56892 873.23551 676.75676 867.7366 688.01699 858.21141 C 696.2276 851.44049 703.43632 842.27984 704.59375 831.375 C 706.01958 817.81385 702.65105 804.42171 701.29336 790.99998 C 696.06416 750.95357 690.43422 710.70389 678.35568 672.04388 C 672.78849 653.86909 667.69125 635.42872 659.57644 618.17929 C 655.11233 608.92226 649.78437 599.85464 642.4375 592.59375 C 642.15044 592.40191 641.78937 592.23785 641.4375 592.34375 z "
       id="path3826"
       inkscape:connector-curvature="0"
       inkscape:transform-center-x="20.458437"
       inkscape:transform-center-y="20.653406" />
    <path
       style="fill:none;stroke:#000000;stroke-width:1px;stroke-linecap:butt;stroke-linejoin:miter;stroke-opacity:1"
       d="m 867.40008,638.47566 c -4.93272,12.77344 -11.48475,25.02511 -14.53902,38.44929 -0.49257,5.01184 0.63165,10.91737 4.97801,13.9774 7.8631,2.74975 16.69927,3.47 23.4543,8.7725 8.47889,5.19776 16.25435,11.52332 25.10976,16.10819 2.78515,-1.82669 1.72188,-5.75889 0.0532,-7.98889 -7.07178,-19.35137 -17.49685,-37.20022 -26.98657,-55.4147 -3.32599,-5.6797 -7.15513,-11.04216 -11.18171,-16.24244 -0.29598,0.77955 -0.59197,1.5591 -0.88796,2.33865 z"
       id="path3834"
       inkscape:connector-curvature="0" />
    <path
       style="fill:none;stroke:#000000;stroke-width:1px;stroke-linecap:butt;stroke-linejoin:miter;stroke-opacity:1"
       d="m -125.65846,528.13455 c -4.03196,17.15188 -21.2357,27.37138 -25.13455,44.58923 -8.02169,23.30515 -15.93668,46.71971 -26.67598,68.95146 -8.91155,19.59821 -17.29992,39.81816 -20.03751,61.33942 -4.83143,27.54241 -12.44398,54.53819 -16.57213,82.21719 -3.82093,23.8062 -7.21328,47.73772 -8.60497,71.82053 -0.34263,5.61292 0.50798,12.86252 6.48061,15.25104 9.33338,4.54267 20.97808,2.49508 29.37545,9.28229 11.23629,6.61208 20.19932,16.23122 29.98113,24.69941 4.67365,-0.20881 5.54974,-6.54246 3.46843,-9.81341 -4.38629,-12.85048 -7.64735,-26.05393 -11.32399,-39.11825 -6.44883,-24.79676 -11.46406,-50.66267 -8.1486,-76.33581 3.04484,-15.73253 15.32704,-30.48872 31.68727,-32.95587 19.16709,-2.22849 37.24854,15.45609 36.66596,34.49421 1.23099,33.92113 -3.31704,67.85452 -11.70537,100.68805 -1.70744,7.21472 -4.05625,14.30577 -6.00791,21.41741 0.89056,2.58122 4.47973,0.95305 5.42148,-0.86554 2.5598,-3.59026 3.76389,-8.02275 6.96131,-11.19549 11.950054,-15.54723 30.070713,-26.38576 49.595618,-28.79889 8.415214,-2.67937 13.399397,-13.1779 9.445024,-21.24305 -3.745823,-16.66328 -7.037484,-33.44847 -8.834,-50.44517 -8.101383,-58.09924 -13.203447,-116.96678 -29.440799,-173.56416 -6.869265,-27.2322 -17.830573,-53.41677 -32.387483,-77.42824 -2.07286,-4.39847 -3.4207,-9.13102 -4.06965,-13.94707 -0.0465,0.32024 -0.0929,0.64048 -0.13934,0.96071 z"
       id="path3845"
       inkscape:connector-curvature="0" />
    <path
       style="fill:none;stroke:#000000;stroke-width:1px;stroke-linecap:butt;stroke-linejoin:miter;stroke-opacity:1"
       d="m -126.01253,632.88512 c -17.12048,26.575 -29.78544,55.85443 -38.91106,86.07331 2.02945,1.99743 3.94886,-1.54302 6.09858,-1.65902 10.98764,-4.3032 23.14128,-3.70132 34.65045,-2.53009 4.94603,1.17011 8.5669,5.10071 12.83153,7.44152 2.70195,-0.0898 2.61742,-3.46705 1.76312,-5.27014 -4.78343,-25.19971 -7.81979,-50.69501 -12.37646,-75.92867 -0.77701,-2.75883 -0.97637,-6.1405 -2.97609,-8.2498 -0.35182,-0.13829 -0.78002,-0.12931 -1.08007,0.12289 z"
       id="path3850"
       inkscape:connector-curvature="0" />
    <path
       style="fill:none;stroke:#000000;stroke-width:1px;stroke-linecap:butt;stroke-linejoin:miter;stroke-opacity:1"
       d="M -332.125 566.40625 C -352.9321 595.14139 -373.25098 624.60885 -387.54653 657.22866 C -398.02218 680.56917 -406.13534 704.95638 -411.73979 729.91844 C -416.28954 749.993 -419.7796 770.29734 -422.76819 790.65858 C -425.21627 807.95502 -427.17162 825.43403 -426.45849 842.92575 C -426.04205 847.5698 -425.16542 852.80803 -421.09031 855.71304 C -417.22732 858.74303 -412.11318 859.01039 -407.50014 860.09177 C -401.63464 861.21902 -395.91428 863.17897 -390.8342 866.36207 C -378.37665 873.60648 -368.34606 884.11709 -357.31366 893.22542 C -352.57684 896.94812 -346.49689 900.46348 -340.26848 898.79397 C -332.17708 896.62898 -327.02439 889.44613 -320.10651 885.22517 C -304.43857 874.92412 -286.27172 869.63532 -269.29042 862.03443 C -262.7722 858.74848 -257.40805 852.47693 -256.74285 845.01432 C -255.00022 835.04232 -256.22704 824.87618 -255.39163 814.83142 C -255.12319 798.45835 -254.19604 781.79041 -258.1875 765.75 C -259.86093 762.17244 -266.27285 763.48139 -266.23402 767.52054 C -268.02919 774.21051 -268.86423 781.23418 -272.07731 787.46577 C -281.43391 810.20035 -301.67615 828.60011 -325.7657 834.28562 C -339.92215 836.90388 -354.70284 829.33135 -362.41075 817.48998 C -368.73101 808.39477 -371.66309 797.19966 -371.33092 786.17513 C -371.02031 777.29009 -368.9436 768.59331 -367.52874 759.84474 C -362.15894 731.08261 -354.88108 702.58407 -344.22898 675.2989 C -340.62643 666.54011 -336.63439 657.78231 -330.85626 650.23081 C -326.31477 646.5623 -319.08159 648.71482 -316.31853 653.5763 C -310.02601 660.89104 -304.85828 669.08986 -298.60774 676.43998 C -288.19683 689.95998 -277.78591 703.47999 -267.375 717 C -263.063 711.38034 -263.71194 703.72613 -265.34375 697.25 C -274.0598 654.91644 -293.59444 615.07568 -320.56321 581.39508 C -324.31298 576.3988 -328.06274 571.40253 -331.8125 566.40625 L -331.96875 566.375 L -332.125 566.40625 z "
       id="path3855"
       inkscape:connector-curvature="0" />
  </g>
</svg>
