<?xml version="1.0" encoding="UTF-8" standalone="no"?>
<!-- Created with Inkscape (http://www.inkscape.org/) -->

<svg
   xmlns:dc="http://purl.org/dc/elements/1.1/"
   xmlns:cc="http://creativecommons.org/ns#"
   xmlns:rdf="http://www.w3.org/1999/02/22-rdf-syntax-ns#"
   xmlns:svg="http://www.w3.org/2000/svg"
   xmlns="http://www.w3.org/2000/svg"
   xmlns:sodipodi="http://sodipodi.sourceforge.net/DTD/sodipodi-0.dtd"
   xmlns:inkscape="http://www.inkscape.org/namespaces/inkscape"
   width="744.09448819"
   height="1052.3622047"
   id="svg2"
   version="1.1"
   inkscape:version="0.48.4 r9939"
   sodipodi:docname="Logo, CazCore.svg">
  <defs
     id="defs4" />
  <sodipodi:namedview
     id="base"
     pagecolor="#ffffff"
     bordercolor="#666666"
     borderopacity="1.0"
     inkscape:pageopacity="0.0"
     inkscape:pageshadow="2"
     inkscape:zoom="0.49497475"
     inkscape:cx="113.39957"
     inkscape:cy="399.06127"
     inkscape:document-units="px"
     inkscape:current-layer="layer1"
     showgrid="false"
     inkscape:window-width="1833"
     inkscape:window-height="1058"
     inkscape:window-x="79"
     inkscape:window-y="-8"
     inkscape:window-maximized="1" />
  <metadata
     id="metadata7">
    <rdf:RDF>
      <cc:Work
         rdf:about="">
        <dc:format>image/svg+xml</dc:format>
        <dc:type
           rdf:resource="http://purl.org/dc/dcmitype/StillImage" />
        <dc:title></dc:title>
      </cc:Work>
    </rdf:RDF>
  </metadata>
  <g
     inkscape:label="Layer 1"
     inkscape:groupmode="layer"
     id="layer1">
    <path
       style="fill:none;stroke:#000000;stroke-width:5.94621611;stroke-linecap:round;stroke-linejoin:round;stroke-opacity:1;fill-opacity:1;stroke-miterlimit:4;stroke-dasharray:none"
       d="M 359.0625 306.125 C 353.26222 321.08079 349.38212 336.67755 345.11788 352.11575 C 339.54832 372.59929 333.86534 393.11219 325.94566 412.83769 C 316.24783 437.74376 304.84998 461.93923 294.68536 486.65225 C 287.94386 502.82204 282.06876 519.34398 276.97141 536.10351 C 272.34032 551.11138 267.92518 566.19797 264.25362 581.47232 C 261.65861 592.46194 259.42067 603.53521 257.70172 614.69679 C 252.61209 645.68981 248.5646 676.85296 245.52495 708.11368 C 242.231 739.14101 239.82405 770.27059 235.62618 801.19618 C 234.1944 810.94467 232.63899 820.76634 229.10033 830.01225 C 226.21717 838.04994 222.7447 845.94226 221.03125 854.34375 C 220.57773 858.62109 223.63748 862.34441 227.17221 864.34251 C 231.31615 866.85461 235.68531 868.97205 239.88108 871.39814 C 257.08485 880.91771 273.68024 891.80569 287.98375 905.37793 C 305.49539 921.65562 320.83591 940.05159 336.43296 958.1199 C 345.44127 968.67917 354.30296 979.40327 364.14275 989.20795 C 366.82985 991.2584 371.06602 990.34589 372.823 987.48759 C 375.74493 984.0107 378.03548 980.05431 381.01855 976.62352 C 400.02579 951.77627 421.69129 929.06593 444.56275 907.76345 C 456.16926 897.07702 469.01711 887.88052 481.76252 878.62677 C 486.67571 874.98677 491.67683 871.2932 495.60396 866.56745 C 498.75025 861.77837 497.95561 855.2675 494.76811 850.70633 C 491.7532 845.38182 488.67883 839.85044 488.01985 833.65661 C 485.36266 820.25507 485.07525 806.52621 482.72394 793.07715 C 481.19789 782.54612 479.11061 772.04379 475.53125 762 C 473.58817 759.52707 469.1691 761.48098 469.15625 764.46875 C 465.28218 778.66509 461.23539 793.20953 452.74334 805.44724 C 445.91626 815.30396 435.96223 822.33421 426.23644 829.07733 C 417.40145 835.07121 408.44727 840.92929 400.24248 847.78541 C 390.54348 855.72071 381.49931 864.42745 371.84262 872.4055 C 368.11996 874.77336 362.86139 873.41318 360.37178 869.88412 C 355.37632 864.56608 350.30382 859.30134 344.65712 854.66292 C 333.33306 844.87345 320.99688 836.25838 310.25972 825.79562 C 307.46754 822.42098 307.78023 817.64268 308.51182 813.59419 C 310.11087 805.96772 311.88953 798.37575 313.17518 790.68572 C 316.48914 772.30169 318.30878 753.67874 319.32355 735.03566 C 321.59846 702.15473 323.94817 669.24487 328.53425 636.58908 C 332.42892 607.8059 337.7659 579.17848 345.41673 551.14561 C 349.83129 535.11523 355.10762 519.27395 362.05009 504.14911 C 364.3688 499.23077 366.58654 494.18023 369.8125 489.78125 C 371.86343 487.63864 375.72097 487.55709 377.59253 489.98667 C 379.82194 492.43929 380.87796 495.6813 382.82817 498.33833 C 402.19924 529.65402 422.61531 560.32003 441.41416 591.99014 C 448.20639 603.27283 454.65652 614.75586 461.18971 626.18823 C 463.41046 629.87704 465.84391 633.45356 468.65625 636.71875 C 470.54842 637.36902 471.6172 634.6216 470.59375 633.28125 C 463.98356 606.8251 460.36391 579.63587 452.02815 553.61569 C 445.38843 533.55199 437.71162 513.85379 430.42569 494.02058 C 424.12012 477.01529 417.18836 460.24722 409.74711 443.70839 C 401.1339 424.22405 393.08933 404.44711 386.89801 384.04514 C 378.54728 357.78853 370.28473 331.4343 359.3125 306.125 L 359.1875 306.09375 L 359.0625 306.125 z "
       id="path3793"
       inkscape:connector-curvature="0"
       inkscape:export-xdpi="148.32326"
       inkscape:export-ydpi="148.32326" />
    <path
       style="fill:none;stroke:#000000;stroke-width:5.94621611;stroke-linecap:round;stroke-linejoin:round;stroke-opacity:1;fill-opacity:1;stroke-miterlimit:4;stroke-dasharray:none"
       d="M 541.875 390 C 538.95135 418.5167 542.60808 447.27552 539.34721 475.77556 C 536.41724 513.62686 529.44166 550.98866 524.17667 588.54568 C 520.05581 620.3563 520.69828 652.52755 522.01369 684.50155 C 523.73635 720.97552 526.99334 757.35254 529.94862 793.74042 C 530.41068 802.305 531.4042 810.88724 531.01988 819.46696 C 530.21871 831.36952 526.003 842.68214 524.0625 854.375 C 524.05878 859.82459 530.03275 863.53246 535.09167 862.44477 C 555.0264 860.87855 575.30765 859.77968 595.02045 863.93512 C 612.502 867.13233 628.76218 874.61982 644.57233 882.46805 C 650.18108 885.10787 655.70479 888.07453 661.53125 890.15625 C 666.8198 890.54391 670.61498 885.74307 672.22259 881.2182 C 679.0422 866.70689 686.04222 852.17215 695.40535 839.09125 C 703.18578 827.97748 712.48799 818.01235 722.59695 808.99158 C 731.50605 800.47232 741.02737 792.31862 748.13608 782.18133 C 750.48054 776.17464 746.76395 769.82463 742.41424 765.80671 C 734.85984 757.09363 729.78726 746.38561 727.41373 735.12601 C 722.273 715.98794 717.80148 696.64529 711.30526 677.89938 C 701.78501 649.11342 690.72225 620.72807 676.4209 593.95395 C 663.9167 571.73558 648.9122 551.04525 633.52206 530.7626 C 620.33192 513.69509 605.09327 498.3082 592.23304 480.98075 C 578.49652 462.47259 567.60663 442.03078 558.38701 420.9509 C 553.29041 409.63849 548.24466 398.27868 542.1875 387.4375 C 542.08333 388.29167 541.97917 389.14583 541.875 390 z "
       id="path3795"
       inkscape:connector-curvature="0"
       inkscape:transform-center-x="22.555864"
       inkscape:export-filename="C:\SkyDrive\Public\Code\Paramancer\Assets\Resources\MEDIA\SOURCE\Logo\path3793.png"
       inkscape:export-xdpi="148.32326"
       inkscape:export-ydpi="148.32326" />
    <path
       style="fill:none;stroke:#000000;stroke-width:5.94621611;stroke-linecap:round;stroke-linejoin:round;stroke-opacity:1;fill-opacity:1;stroke-miterlimit:4;stroke-dasharray:none"
       d="M 721.28125 439.125 C 732.69126 468.04454 746.42998 496.51429 751.41551 527.46846 C 755.84336 559.84554 755.35506 592.71506 760.6121 625.00013 C 765.61793 664.24861 773.97323 703.00538 778.48168 742.31922 C 779.05191 752.49042 777.61237 762.63483 776.31494 772.67968 C 777.24272 778.14725 783.50769 780.47736 788.46333 780.17257 C 812.70248 782.2802 837.44864 784.6299 860.08135 794.20878 C 862.31938 794.85627 863.47988 791.90176 862.06663 790.37192 C 860.04983 787.43449 857.08393 785.30133 854.84375 782.53125 C 844.35915 771.64009 832.43194 761.14937 826.90993 746.67097 C 822.28014 733.8093 822.1538 719.60644 825.01421 706.34942 C 827.58056 700.62881 836.1879 699.49553 840.31374 704.14155 C 848.69441 710.54764 854.85723 719.24991 861.83806 727.04558 C 869.71676 736.80025 877.58355 747.27618 880.53125 759.6875 C 881.86635 768.3035 879.33318 777.34968 882.16051 785.72301 C 884.54204 788.1085 888.4948 785.43998 888.69731 782.51802 C 897.32686 764.88131 912.41815 751.49166 928.17559 740.28899 C 930.77361 738.59363 934.45 736.75883 934.46875 733.21875 C 933.33774 729.59852 928.86553 729.83572 925.80903 729.66125 C 911.78659 728.05443 900.09404 718.66987 891.33298 708.15541 C 883.73736 698.8935 875.51799 689.73894 870.90625 678.53125 C 869.98285 674.70835 874.05688 671.69424 877.45168 671.17543 C 880.61471 670.61582 883.77091 671.62478 886.96215 671.22016 C 893.56181 671.00564 900.94492 670.18305 905.86338 665.32372 C 909.7861 659.78155 907.67852 652.43815 904.69526 646.9784 C 893.95919 622.37303 875.76144 602.25416 859.68803 581.1028 C 846.20546 564.27288 830.47779 549.3419 813.50105 536.08071 C 790.63854 517.11032 768.40246 497.05377 750.06325 473.56572 C 740.43729 462.04091 730.89295 450.44819 721.25 438.9375 L 721.28005 439.11782 L 721.28125 439.125 z "
       id="path3797"
       inkscape:connector-curvature="0"
       inkscape:export-filename="C:\SkyDrive\Public\Code\Paramancer\Assets\Resources\MEDIA\SOURCE\Logo\path3793.png"
       inkscape:export-xdpi="148.32326"
       inkscape:export-ydpi="148.32326" />
    <path
       style="fill:none;stroke:#000000;stroke-width:5.7355957;stroke-linecap:round;stroke-linejoin:round;stroke-opacity:1;fill-opacity:1;stroke-miterlimit:4;stroke-dasharray:none"
       d="M 884.53125 488.78125 C 894.06597 514.10951 911.48324 535.90203 918.67846 562.20051 C 928.26311 594.53855 939.72519 626.31661 953.06684 657.29515 C 958.69208 670.82658 962.94257 685.51968 961.10681 700.3069 C 960.52103 707.63287 957.68412 715.17758 960.125 722.4375 C 963.24111 725.83637 968.39102 724.26968 971.9853 722.56536 C 990.79201 716.00439 1010.5006 709.72719 1030.6821 711.54686 C 1042.7366 712.43122 1054.134 718.15496 1066.3438 717.40625 C 1071.3763 716.75712 1074.1924 712.00984 1075.7625 707.66126 C 1077.8591 701.81807 1079.2226 695.69223 1082.2193 690.20094 C 1091.2859 670.8743 1106.0812 655.07232 1121.2352 640.35476 C 1125.6822 635.70373 1130.7452 630.91957 1132.4617 624.54 C 1131.4953 619.55429 1125.9547 618.06726 1122.0193 616.07972 C 1110.2973 609.66782 1099.8992 601.08226 1088 594.96875 C 1084.7729 596.50525 1085.7133 600.93607 1087.5645 603.17975 C 1089.4159 612.13059 1083.7499 620.82158 1076.6797 625.81312 C 1064.3885 637.28248 1056.1953 652.22769 1045.1946 664.79317 C 1037.206 670.48961 1026.9294 669.61489 1017.6344 669.75546 C 1012.2375 669.9898 1005.4974 669.47698 1002.4927 664.26673 C 998.67607 656.70329 1000.622 647.92659 1002.2278 640.04568 C 1006.0954 625.82327 1017.2104 614.7701 1029.6358 607.49881 C 1032.907 605.06009 1036.3222 602.62639 1038.625 599.1875 C 1036.9566 595.50175 1031.9585 596.37045 1029.2001 598.20939 C 1015.9603 602.13076 1002.7653 607.81447 988.6875 607.25 C 981.11566 604.31928 977.7912 596.30682 974.36886 589.57868 C 969.58073 579.9952 964.72002 570.154 963.3125 559.40625 C 966.03414 554.19494 973.09599 553.7294 978 555.78125 C 1000.8617 558.83551 1023.296 564.56687 1046.25 567 C 1049.7211 565.47605 1047.2264 559.44439 1043.7188 560.40625 C 1010.5495 545.63078 977.00936 531.62531 942.7654 519.52446 C 922.08566 510.66649 903.41072 497.97863 883.875 486.96875 C 884.09375 487.57292 884.3125 488.17708 884.53125 488.78125 z "
       id="path3799"
       inkscape:connector-curvature="0"
       inkscape:export-filename="C:\SkyDrive\Public\Code\Paramancer\Assets\Resources\MEDIA\SOURCE\Logo\path3793.png"
       inkscape:export-xdpi="148.32326"
       inkscape:export-ydpi="148.32326" />
    <path
       style="fill:none;stroke:#000000;stroke-width:5.94621611;stroke-linecap:round;stroke-linejoin:round;stroke-opacity:1;fill-opacity:1;stroke-miterlimit:4;stroke-dasharray:none"
       d="M 182.625 383.46875 C 171.74967 402.2399 164.66211 422.85071 155.09777 442.26801 C 145.61184 461.77632 133.62247 479.92258 121.37733 497.78135 C 103.44821 523.55519 83.381485 547.83593 66.738772 574.50011 C 58.490685 588.01237 51.483472 602.65132 48.96875 618.40625 C 48.798545 621.02136 47.826608 623.94514 49.237233 626.36305 C 50.530478 627.98921 53.151864 627.14998 53.983787 625.45688 C 56.434232 621.93544 58.837608 618.37786 61.501237 615.00877 C 78.190572 592.83585 98.886093 573.56449 122.71314 559.26066 C 125.84155 557.55937 128.94521 555.42659 132.55727 554.98598 C 135.53926 554.76237 137.55238 557.74126 138.125 560.34375 C 138.74054 563.22812 137.81835 566.11657 137.80727 569.01596 C 136.6753 585.5498 136.29364 602.40578 131.24221 618.33588 C 127.05112 630.52204 118.35138 640.55717 108.73421 648.86882 C 87.844412 667.3351 65.503527 684.35211 46.917193 705.26141 C 34.138277 719.77923 25.390926 737.20817 16.84375 754.40625 C 9.805308 768.51901 2.7934089 782.95617 -7.7995667 794.81228 C -11.7427 799.22074 -16.387229 803.16483 -19.279592 808.39114 C -20.584581 811.55907 -18.705653 815.18937 -15.808588 816.71444 C -12.785725 818.50886 -9.3180149 819.33745 -6.196839 820.93694 C 8.9443279 827.50663 24.70613 833.00942 38.659186 841.98302 C 49.086118 849.56209 56.544308 860.38268 62.884413 871.43381 C 66.230201 876.63097 68.828567 882.61087 73.876133 886.43675 C 77.644551 888.73595 82.522263 887.69568 85.98016 885.29917 C 93.723998 881.18215 101.54039 877.17149 109.71867 873.97659 C 127.98044 866.43032 147.31416 862.04659 166.53125 857.71875 C 174.14754 855.87855 181.95885 853.9232 188.625 849.65625 C 192.33551 846.30802 192.66989 840.49868 190.57423 836.18362 C 187.90091 828.42824 186.0157 820.33578 185.88981 812.10218 C 184.97518 794.20213 187.29999 776.24568 185.46875 758.375 C 184.21155 756.16098 180.30156 757.60523 180.5625 760.0625 C 177.38408 770.7064 173.22437 781.51106 165.39985 789.6525 C 158.71308 796.50169 149.31796 799.55079 140.2829 801.89243 C 128.64295 804.93304 117.09921 808.42975 105.2713 810.68247 C 100.12372 811.64061 94.453551 811.74699 89.836646 808.91619 C 84.470333 805.87718 80.084951 801.42766 74.853738 798.18224 C 71.788733 795.90651 68.144954 793.72268 66.762113 789.97445 C 66.394698 786.42986 69.524787 784.02644 71.094602 781.20508 C 81.065376 766.36804 88.306569 749.76042 99.629163 735.82423 C 115.19884 717.25939 131.95204 699.55668 150.87111 684.35702 C 160.15189 676.73254 170.59318 670.57457 179.40625 662.375 C 184.65574 657.36217 189.00342 651.21783 190.9563 644.15763 C 194.20786 633.46309 193.98472 622.13298 193.72356 611.0745 C 193.21749 594.59681 192.176 578.13606 190.45157 561.73969 C 188.89417 546.4047 186.6873 531.14567 184.24127 515.92988 C 181.61827 498.83468 179.15328 481.55759 180.18166 464.21712 C 181.34646 444.2389 183.5952 424.30349 183.46875 404.26728 C 183.40816 397.83524 183.55075 391.38171 183 384.96875 C 182.86977 384.58152 182.99728 383.562 182.625 383.46875 z "
       id="path3820"
       inkscape:connector-curvature="0"
       inkscape:export-filename="C:\SkyDrive\Public\Code\Paramancer\Assets\Resources\MEDIA\SOURCE\Logo\path3793.png"
       inkscape:export-xdpi="148.32326"
       inkscape:export-ydpi="148.32326" />
    <path
       style="fill:none;stroke:#000000;stroke-width:5.94621611;stroke-linecap:round;stroke-linejoin:round;stroke-opacity:1;fill-opacity:1;stroke-miterlimit:4;stroke-dasharray:none"
       d="M 583.625 560.0625 C 580.98436 585.9442 578.88954 611.88288 577.35155 637.85279 C 576.03333 667.78951 576.79284 697.8659 580.69186 727.59738 C 582.67138 743.70546 586.12422 759.61159 587.62234 775.78055 C 588.52721 787.02047 587.79944 798.33374 586.22294 809.4789 C 585.96467 811.37577 586.27996 814.17762 588.59375 814.5625 C 591.50674 815.12475 594.30178 813.59008 597.21549 813.60086 C 609.28764 812.25387 621.78171 815.04035 632.10827 821.44476 C 636.54712 823.66764 641.3939 826.23891 646.50993 825.45508 C 650.68296 823.75407 652.17517 819.14719 654.27437 815.55711 C 662.73191 800.7926 674.96606 788.55794 688.23939 778.07701 C 690.56995 776.27809 693.70544 774.4585 693.84375 771.15625 C 693.49641 766.43313 689.41875 763.32003 687.64567 759.17369 C 678.48872 742.17115 673.91401 723.2726 668.49172 704.87321 C 662.07513 682.74569 654.54592 660.82852 644.00326 640.29201 C 628.95332 610.44966 610.21489 582.618 589.95868 556.08811 C 588.24639 553.88444 586.62713 551.60122 584.75 549.53125 C 584.375 553.04167 584 556.55208 583.625 560.0625 z "
       id="path3826"
       inkscape:connector-curvature="0"
       inkscape:transform-center-x="20.458437"
       inkscape:transform-center-y="20.653406"
       inkscape:export-filename="C:\SkyDrive\Public\Code\Paramancer\Assets\Resources\MEDIA\SOURCE\Logo\path3793.png"
       inkscape:export-xdpi="148.32326"
       inkscape:export-ydpi="148.32326" />
    <path
       style="fill:none;stroke:#000000;stroke-width:5.94621611;stroke-linecap:round;stroke-linejoin:round;stroke-opacity:1;fill-opacity:1;stroke-miterlimit:4;stroke-dasharray:none"
       d="M 794.875 574.90625 C 791.9823 592.64781 797.19011 610.22847 799.33465 627.73952 C 801.03651 638.12639 802.41659 648.91261 807.4375 658.3125 C 810.15327 662.25638 816.09149 664.21634 820.12593 661.06291 C 826.14653 657.46766 831.18405 652.24692 837.90711 649.85098 C 843.38489 647.39817 849.48767 646.60489 854.93052 644.15677 C 857.47723 642.13839 856.57592 638.52366 854.89729 636.26321 C 847.81078 622.1522 838.71422 608.96838 827.20126 598.0981 C 817.49674 588.7831 806.48227 580.95369 795.09375 573.84375 C 795.02083 574.19792 794.94792 574.55208 794.875 574.90625 z "
       id="path3834"
       inkscape:connector-curvature="0"
       inkscape:export-filename="C:\SkyDrive\Public\Code\Paramancer\Assets\Resources\MEDIA\SOURCE\Logo\path3793.png"
       inkscape:export-xdpi="148.32326"
       inkscape:export-ydpi="148.32326" />
    <path
       style="fill:none;stroke:#000000;stroke-width:5.94621611;stroke-linecap:round;stroke-linejoin:round;stroke-opacity:1;fill-opacity:1;stroke-miterlimit:4;stroke-dasharray:none"
       d="M 18.96875 426.375 C -12.247316 467.64274 -42.276431 510.26008 -79.738274 546.24194 C -109.55005 575.70196 -140.70885 604.37951 -164.61167 639.07562 C -184.04094 666.57618 -201.0465 695.92431 -223.28703 721.33733 C -230.31419 728.38238 -239.08684 733.53826 -245.40625 741.3125 C -245.58478 745.94915 -240.79284 748.4708 -237.01785 749.79911 C -211.58347 762.08805 -189.49224 780.80212 -172.0625 802.9375 C -170.7502 804.35416 -168.11467 803.38581 -168.73661 801.31248 C -169.25848 797.55287 -171.98193 794.55306 -172.68072 790.82102 C -178.41064 774.4397 -180.12305 755.89775 -173.62828 739.46781 C -170.59508 730.26033 -161.35301 723.80804 -151.72492 723.65797 C -141.14341 722.69933 -130.10667 724.13792 -120.52313 728.87194 C -103.74386 737.77059 -94.962428 759.52789 -101.32912 777.49363 C -105.08922 787.78655 -114.20098 794.8641 -123.24308 800.39862 C -131.84961 805.82459 -141.33332 809.8161 -149.5 815.9375 C -149.87226 818.84231 -145.8902 819.43236 -144.00505 818.11205 C -124.95153 813.62465 -106.04757 808.50467 -87.225738 803.15741 C -73.113027 800.52835 -58.792145 805.60658 -44.696909 802.97189 C -41.062879 802.05308 -38.411809 798.14071 -39.572404 794.44212 C -40.554264 788.34163 -43.729867 782.75507 -43.96875 776.5 C -46.236614 760.65483 -42.379852 744.82103 -38.101229 729.65932 C -30.894769 699.64608 -28.127788 668.83343 -23.767461 638.33689 C -19.7923 606.43347 -17.330339 574.36257 -13.729889 542.42118 C -8.3174026 508.77743 4.2576581 476.93284 13.538157 444.28421 C 15.400438 438.27281 17.262719 432.2614 19.125 426.25 L 18.978412 426.36727 L 18.96875 426.375 z "
       id="path3845"
       inkscape:connector-curvature="0"
       inkscape:export-filename="C:\SkyDrive\Public\Code\Paramancer\Assets\Resources\MEDIA\SOURCE\Logo\path3793.png"
       inkscape:export-xdpi="148.32326"
       inkscape:export-ydpi="148.32326" />
    <path
       style="fill:none;stroke:#000000;stroke-width:5.94621611;stroke-linecap:round;stroke-linejoin:round;stroke-opacity:1;fill-opacity:1;stroke-miterlimit:4;stroke-dasharray:none"
       d="M -62.59375 593.625 C -80.169984 608.29039 -98.324194 622.56674 -113.14167 640.14462 C -121.04997 649.77972 -128.28826 659.97725 -134.71875 670.65625 C -136.86645 674.5712 -139.20846 678.46806 -140.53125 682.75 C -140.86126 685.20282 -138.07051 686.76343 -135.90625 686.25 C -132.77133 685.73463 -129.86296 684.28052 -126.66907 684.04379 C -116.35529 682.6275 -105.48495 686.15577 -98.079317 693.496 C -93.822406 697.46061 -90.668186 702.40469 -87.3125 707.09375 C -86.268172 707.73391 -85.030432 706.70445 -84.1875 706.09375 C -82.130114 704.48116 -81.509807 701.82398 -80.92399 699.42724 C -74.047252 682.32696 -68.434466 664.62879 -65.441734 646.41295 C -63.204227 632.57718 -63.068051 618.53115 -61.960723 604.58681 C -61.785372 601.00852 -61.675022 597.41935 -61.96875 593.84375 C -62.110842 593.65754 -62.360346 593.52827 -62.59375 593.625 z "
       id="path3850"
       inkscape:connector-curvature="0"
       inkscape:export-filename="C:\SkyDrive\Public\Code\Paramancer\Assets\Resources\MEDIA\SOURCE\Logo\path3793.png"
       inkscape:export-xdpi="148.32326"
       inkscape:export-ydpi="148.32326" />
    <path
       style="fill:none;stroke:#000000;stroke-width:5.94621611;stroke-linecap:round;stroke-linejoin:round;stroke-opacity:1;fill-opacity:1;stroke-miterlimit:4;stroke-dasharray:none"
       d="M -144.6875 463.25 C -184.38394 482.32629 -225.38815 498.47579 -266.18983 514.98961 C -291.88493 524.52642 -318.27429 533.69225 -340.58464 550.06493 C -363.06565 565.60254 -382.32417 585.23222 -404.38666 601.3027 C -410.01727 604.18599 -417.16705 606.0389 -420.23948 612.09283 C -420.96693 618.16937 -415.82823 622.50238 -412.04889 626.45116 C -394.52063 648.45695 -385.81995 676.25488 -382.87355 703.93453 C -382.32878 709.53027 -381.09327 716.29737 -375.60582 719.12933 C -368.30643 721.90907 -360.84526 717.85739 -353.43977 717.86863 C -327.71751 715.45412 -302.38782 721.9073 -277.25055 726.3295 C -273.6398 726.93404 -269.50367 725.27434 -268.41322 721.5305 C -266.31785 716.49418 -267.02626 710.68723 -264.33168 705.82921 C -258.34055 691.18992 -247.8735 678.8633 -242.21875 664.0625 C -242.82851 660.46015 -248.61191 661.64391 -248.85873 664.87178 C -257.71946 677.96089 -275.60763 683.48587 -290.48617 678.57076 C -306.48712 675.22934 -322.70939 672.77111 -338.50393 668.55836 C -344.66499 664.90038 -345.85295 657.21868 -347.13308 650.78519 C -349.0963 641.47979 -353.39416 631.86771 -350.43342 622.29323 C -346.68871 611.99564 -337.69074 605.10671 -330.28461 597.51477 C -310.40593 578.61925 -285.7648 565.30961 -259.84748 556.70815 C -250.99726 553.88729 -241.99908 551.31008 -232.81228 549.90625 C -228.65354 549.70008 -224.78447 552.87335 -224.3265 557.04476 C -222.56372 564.11384 -223.96199 571.45026 -223.21018 578.62627 C -222.79842 593.83739 -222.43348 609.05199 -221.65625 624.25 C -217.84068 626.22119 -213.58884 621.64471 -214.46875 617.84375 C -201.15743 583.0483 -193.17687 546.06964 -175.15625 513.1875 C -165.76635 495.9936 -152.14192 481.43491 -143.6875 463.6875 C -143.7839 463.26736 -144.32006 463.06412 -144.6875 463.25 z "
       id="path3855"
       inkscape:connector-curvature="0"
       inkscape:export-filename="C:\SkyDrive\Public\Code\Paramancer\Assets\Resources\MEDIA\SOURCE\Logo\path3793.png"
       inkscape:export-xdpi="148.32326"
       inkscape:export-ydpi="148.32326" />
  </g>
</svg>
